<svg xmlns="http://www.w3.org/2000/svg" xmlns:xlink="http://www.w3.org/1999/xlink" viewBox="0 0 106 20"><path d="M 101.998 14.326 C 101.183 14.326 100.46 14.152 99.827 13.803 C 99.214 13.452 98.708 12.939 98.365 12.318 C 98.022 11.677 97.85 10.936 97.85 10.098 C 97.85 9.238 98.022 8.482 98.365 7.828 C 98.7 7.185 99.206 6.648 99.827 6.278 C 100.449 5.897 101.172 5.707 101.998 5.707 C 102.801 5.707 103.503 5.886 104.104 6.245 C 104.692 6.593 105.175 7.095 105.501 7.698 C 105.834 8.308 106 8.998 106 9.772 L 106 10.147 C 106 10.278 105.989 10.413 105.968 10.555 L 99.393 10.555 L 99.393 9.217 L 103.814 9.217 C 103.781 8.683 103.594 8.264 103.251 7.959 C 102.919 7.655 102.501 7.503 101.998 7.503 C 101.633 7.503 101.295 7.589 100.985 7.763 C 100.674 7.927 100.428 8.183 100.245 8.53 C 100.074 8.879 99.988 9.32 99.988 9.853 L 99.988 10.327 C 99.988 10.773 100.068 11.164 100.23 11.502 C 100.401 11.828 100.636 12.084 100.937 12.268 C 101.237 12.443 101.585 12.53 101.981 12.53 C 102.378 12.53 102.705 12.443 102.962 12.269 C 103.219 12.107 103.425 11.875 103.557 11.6 L 105.775 11.6 C 105.625 12.112 105.367 12.585 105.019 12.988 C 104.661 13.405 104.217 13.739 103.718 13.967 C 103.203 14.207 102.63 14.326 101.998 14.326 Z M 95.007 14.13 C 94.439 14.13 93.94 14.043 93.511 13.869 C 93.095 13.686 92.751 13.37 92.531 12.971 C 92.295 12.547 92.177 11.97 92.177 11.241 L 92.177 7.747 L 90.795 7.747 L 90.795 5.902 L 92.177 5.902 L 92.418 3.666 L 94.347 3.666 L 94.347 5.902 L 96.485 5.902 L 96.485 7.747 L 94.347 7.747 L 94.347 11.273 C 94.347 11.643 94.428 11.898 94.588 12.04 C 94.749 12.182 95.022 12.252 95.408 12.252 L 96.469 12.252 L 96.469 14.13 Z M 82.685 17.722 L 84.646 13.216 L 84.164 13.216 L 80.917 5.902 L 83.28 5.902 L 85.595 11.208 L 87.684 5.902 L 89.983 5.902 L 84.984 17.722 Z M 72.002 14.13 L 72.002 2.376 L 74.172 2.376 L 74.172 7.127 C 74.433 6.698 74.798 6.344 75.234 6.098 C 75.683 5.838 76.202 5.707 76.792 5.707 C 77.468 5.707 78.035 5.853 78.496 6.147 C 78.957 6.431 79.305 6.844 79.541 7.388 C 79.777 7.933 79.895 8.607 79.895 9.412 L 79.895 14.13 L 77.741 14.13 L 77.741 9.608 C 77.741 8.955 77.607 8.454 77.339 8.107 C 77.071 7.748 76.648 7.567 76.069 7.567 C 75.715 7.567 75.394 7.655 75.104 7.829 C 74.806 8.013 74.566 8.279 74.414 8.596 C 74.252 8.922 74.173 9.314 74.173 9.771 L 74.173 14.13 Z M 66.161 14.326 C 65.346 14.326 64.623 14.141 63.991 13.771 C 63.368 13.411 62.856 12.886 62.511 12.253 C 62.157 11.611 61.981 10.876 61.981 10.049 C 61.981 9.2 62.157 8.454 62.511 7.813 C 62.852 7.172 63.365 6.641 63.99 6.278 C 64.623 5.897 65.346 5.707 66.16 5.707 C 67.2 5.707 68.073 5.984 68.781 6.539 C 69.488 7.094 69.938 7.856 70.131 8.824 L 67.832 8.824 C 67.746 8.459 67.528 8.139 67.221 7.927 C 66.921 7.709 66.562 7.6 66.145 7.6 C 65.769 7.6 65.432 7.698 65.131 7.894 C 64.842 8.079 64.612 8.357 64.441 8.727 C 64.28 9.085 64.2 9.516 64.2 10.017 C 64.2 10.398 64.248 10.74 64.344 11.045 C 64.441 11.338 64.575 11.595 64.746 11.812 C 64.918 12.019 65.12 12.177 65.356 12.286 C 65.603 12.394 65.866 12.448 66.144 12.448 C 66.423 12.448 66.674 12.4 66.9 12.302 C 67.135 12.204 67.334 12.068 67.495 11.893 C 67.655 11.708 67.768 11.485 67.832 11.224 L 70.131 11.224 C 69.938 12.171 69.482 12.928 68.764 13.493 C 68.057 14.048 67.189 14.327 66.161 14.327 Z M 55.552 14.326 C 54.877 14.326 54.32 14.218 53.88 13.999 C 53.441 13.771 53.114 13.472 52.9 13.102 C 52.695 12.715 52.59 12.283 52.594 11.845 C 52.594 11.344 52.718 10.903 52.964 10.523 C 53.221 10.142 53.602 9.843 54.106 9.624 C 54.62 9.408 55.263 9.298 56.035 9.298 L 58.044 9.298 C 58.044 8.895 57.99 8.563 57.883 8.303 C 57.792 8.049 57.616 7.836 57.385 7.698 C 57.16 7.568 56.86 7.503 56.485 7.503 C 56.077 7.503 55.729 7.594 55.44 7.78 C 55.161 7.954 54.99 8.226 54.925 8.597 L 52.819 8.597 C 52.873 8.008 53.06 7.503 53.383 7.078 C 53.724 6.635 54.172 6.287 54.684 6.066 C 55.231 5.826 55.835 5.707 56.5 5.707 C 57.262 5.707 57.921 5.838 58.478 6.098 C 59.035 6.359 59.464 6.735 59.764 7.225 C 60.064 7.714 60.214 8.318 60.214 9.037 L 60.214 14.13 L 58.381 14.13 L 58.141 12.873 C 58.026 13.086 57.886 13.283 57.722 13.461 C 57.377 13.835 56.929 14.096 56.436 14.212 C 56.148 14.291 55.851 14.329 55.552 14.326 Z M 56.067 12.628 C 56.346 12.628 56.592 12.579 56.806 12.482 C 57.031 12.373 57.224 12.232 57.385 12.057 C 57.546 11.872 57.669 11.665 57.754 11.437 C 57.852 11.191 57.917 10.933 57.947 10.67 L 57.947 10.653 L 56.291 10.653 C 55.96 10.653 55.686 10.697 55.471 10.783 C 55.288 10.845 55.13 10.965 55.021 11.127 C 54.924 11.283 54.874 11.465 54.877 11.649 C 54.877 11.866 54.925 12.046 55.021 12.188 C 55.118 12.329 55.257 12.438 55.44 12.514 C 55.622 12.59 55.831 12.628 56.067 12.628 Z M 48.534 14.13 L 48.534 2.376 L 50.704 2.376 L 50.704 14.13 Z M 41.848 14.326 C 41.173 14.326 40.615 14.218 40.176 13.999 C 39.737 13.771 39.41 13.472 39.196 13.102 C 38.991 12.715 38.886 12.283 38.89 11.845 C 38.89 11.344 39.014 10.903 39.26 10.523 C 39.517 10.142 39.897 9.843 40.402 9.624 C 40.915 9.408 41.559 9.298 42.33 9.298 L 44.339 9.298 C 44.339 8.895 44.286 8.563 44.179 8.303 C 44.087 8.049 43.911 7.835 43.68 7.698 C 43.456 7.568 43.155 7.503 42.78 7.503 C 42.373 7.503 42.025 7.594 41.736 7.78 C 41.457 7.954 41.285 8.226 41.222 8.597 L 39.116 8.597 C 39.169 8.008 39.356 7.503 39.679 7.078 C 40.02 6.635 40.468 6.287 40.98 6.066 C 41.526 5.826 42.133 5.707 42.797 5.707 C 43.558 5.707 44.216 5.838 44.773 6.098 C 45.331 6.359 45.759 6.735 46.059 7.225 C 46.359 7.714 46.51 8.318 46.51 9.037 L 46.51 14.13 L 44.677 14.13 L 44.436 12.873 C 44.322 13.086 44.181 13.283 44.018 13.461 C 43.673 13.835 43.226 14.096 42.732 14.212 C 42.465 14.288 42.169 14.326 41.848 14.326 Z M 42.362 12.628 C 42.641 12.628 42.888 12.579 43.102 12.482 C 43.32 12.378 43.516 12.234 43.68 12.057 C 43.841 11.872 43.964 11.665 44.05 11.437 C 44.148 11.191 44.213 10.933 44.243 10.67 L 44.243 10.653 L 42.587 10.653 C 42.256 10.653 41.983 10.697 41.767 10.783 C 41.584 10.845 41.426 10.965 41.318 11.127 C 41.22 11.283 41.17 11.465 41.173 11.649 C 41.173 11.866 41.222 12.046 41.318 12.188 C 41.415 12.329 41.554 12.438 41.736 12.514 C 41.918 12.59 42.127 12.628 42.363 12.628 Z M 23.983 14.13 L 23.983 5.903 L 25.895 5.903 L 26.073 6.996 C 26.328 6.606 26.676 6.286 27.085 6.066 C 27.514 5.826 28.001 5.707 28.548 5.707 C 28.955 5.707 29.32 5.761 29.641 5.87 C 29.962 5.978 30.246 6.137 30.493 6.343 C 30.75 6.55 30.959 6.811 31.12 7.127 C 31.417 6.684 31.82 6.324 32.294 6.082 C 32.781 5.83 33.321 5.702 33.869 5.707 C 34.576 5.707 35.166 5.853 35.637 6.148 C 36.109 6.431 36.462 6.844 36.698 7.388 C 36.944 7.933 37.068 8.602 37.068 9.397 L 37.068 14.13 L 34.914 14.13 L 34.914 9.592 C 34.914 8.939 34.785 8.438 34.528 8.09 C 34.281 7.742 33.895 7.568 33.37 7.568 C 33.027 7.568 32.722 7.655 32.454 7.829 C 32.178 8.013 31.96 8.273 31.827 8.579 C 31.688 8.906 31.619 9.298 31.619 9.755 L 31.619 14.13 L 29.448 14.13 L 29.448 9.592 C 29.448 8.939 29.32 8.438 29.062 8.09 C 28.806 7.742 28.408 7.568 27.873 7.568 C 27.554 7.564 27.241 7.655 26.973 7.829 C 26.716 8.003 26.512 8.253 26.362 8.579 C 26.223 8.906 26.153 9.298 26.153 9.755 L 26.153 14.13 L 23.983 14.13 Z" fill="rgb(27,65,111)"></path><path d="M 8.821 3.825 C 8.783 3.627 8.7 3.44 8.579 3.28 L 10.718 0.037 C 12.659 0.213 14.479 0.971 15.967 2.168 L 14.443 4.181 C 14.202 4.071 13.932 4.04 13.672 4.092 C 13.25 4.177 12.918 4.462 12.752 4.83 L 8.844 4.026 C 8.841 3.958 8.833 3.891 8.82 3.824 Z" fill="rgb(79,155,121)"></path><path d="M 16.616 2.738 L 15.067 4.784 C 15.25 5.147 15.254 5.575 15.078 5.942 C 14.902 6.308 14.566 6.571 14.169 6.652 C 13.501 6.783 12.846 6.366 12.679 5.702 L 8.588 4.86 C 8.527 4.941 8.458 5.016 8.381 5.081 L 9.398 8.251 C 9.898 8.247 10.355 8.535 10.569 8.99 L 13.818 9.126 C 14.093 8.793 14.516 8.622 14.944 8.671 C 15.651 8.756 16.157 9.4 16.076 10.113 C 16.005 10.78 15.439 11.283 14.771 11.271 L 12.462 14.732 C 12.489 14.767 12.514 14.803 12.537 14.841 L 15.258 14.188 C 15.318 13.624 15.734 13.164 16.286 13.051 C 16.621 12.985 16.969 13.056 17.252 13.248 C 17.536 13.441 17.731 13.74 17.795 14.078 C 17.935 14.781 17.483 15.467 16.784 15.61 C 16.265 15.713 15.736 15.485 15.454 15.035 L 12.719 15.691 C 12.7 15.847 12.653 15.997 12.581 16.137 L 14.414 18.86 C 18.181 16.858 20.37 12.514 19.505 8.063 C 19.114 6.03 18.105 4.169 16.616 2.738 Z" fill="rgb(79,155,121)"></path><path d="M 13.628 19.233 L 11.943 16.73 C 11.586 16.881 11.18 16.861 10.839 16.677 C 10.498 16.492 10.258 16.163 10.185 15.78 C 10.115 15.426 10.194 15.059 10.403 14.766 C 10.613 14.472 10.933 14.28 11.289 14.233 L 11.296 14.228 L 11.299 14.233 C 11.451 14.214 11.601 14.224 11.744 14.259 L 13.953 10.948 C 13.678 10.703 13.519 10.353 13.515 9.983 L 10.659 9.864 C 10.517 10.461 9.979 10.876 9.369 10.859 L 6.986 14.47 C 7.114 14.63 7.206 14.823 7.249 15.04 C 7.319 15.398 7.237 15.77 7.023 16.065 C 6.808 16.359 6.481 16.55 6.12 16.59 L 5.873 19.148 C 7.717 19.978 9.772 20.209 11.753 19.809 C 12.395 19.68 13.024 19.488 13.628 19.233 Z M 5.053 18.733 L 5.28 16.38 C 4.698 15.987 4.53 15.201 4.899 14.602 L 3.874 13.324 L 3.867 13.325 C 3.531 13.393 3.182 13.323 2.898 13.13 C 2.613 12.938 2.417 12.639 2.353 12.3 C 2.242 11.734 2.512 11.162 3.018 10.892 L 3.105 7.997 C 2.534 7.726 2.238 7.081 2.404 6.467 L 1.101 5.408 C 0.075 7.419 -0.247 9.719 0.188 11.937 C 0.739 14.811 2.518 17.297 5.053 18.734 Z" fill="rgb(79,155,121)"></path><path d="M 9.712 0 L 7.859 2.808 C 7.68 2.765 7.493 2.761 7.312 2.798 C 6.617 2.937 6.164 3.623 6.302 4.329 C 6.419 4.944 6.956 5.386 7.577 5.381 L 8.593 8.549 C 8.303 8.793 8.133 9.151 8.126 9.53 C 8.119 9.91 8.276 10.274 8.556 10.528 L 6.254 14.017 C 6.026 13.968 5.79 13.983 5.57 14.06 L 4.612 12.867 C 4.892 12.513 4.972 12.04 4.823 11.613 C 4.673 11.187 4.316 10.868 3.877 10.77 L 3.96 8.076 C 4.616 7.907 5.035 7.242 4.902 6.559 C 4.838 6.221 4.643 5.923 4.36 5.731 C 4.077 5.538 3.729 5.467 3.394 5.533 C 3.213 5.569 3.042 5.645 2.893 5.753 L 1.533 4.645 C 2.967 2.335 5.285 0.723 7.94 0.191 C 8.524 0.073 9.117 0.009 9.712 0 Z" fill="rgb(79,155,121)"></path></svg>